<?xml version="1.0" standalone="no"?>
<!DOCTYPE svg PUBLIC "-//W3C//DTD SVG 20010904//EN"
 "http://www.w3.org/TR/2001/REC-SVG-20010904/DTD/svg10.dtd">
<svg version="1.0" xmlns="http://www.w3.org/2000/svg"
 width="16.000000pt" height="16.000000pt" viewBox="0 0 16.000000 16.000000"
 preserveAspectRatio="xMidYMid meet">
<metadata>
Created by potrace 1.11, written by Peter Selinger 2001-2013
</metadata>
<g transform="translate(0.000000,16.000000) scale(0.002500,-0.002500)"
fill="#000000" stroke="none">
<path d="M2725 5407 c-169 -82 -279 -185 -442 -415 -161 -227 -148 -218 -494
-333 -355 -119 -571 -221 -761 -361 -119 -87 -316 -290 -446 -457 -90 -118
-121 -167 -169 -270 l-58 -126 -3 -119 c-3 -68 1 -144 8 -179 14 -74 60 -168
95 -195 34 -27 33 -82 -2 -218 l-28 -104 22 -22 23 -22 31 29 c17 17 46 52 65
80 21 31 34 43 34 32 0 -10 -27 -57 -61 -104 -69 -97 -68 -113 9 -113 41 0 50
5 86 43 23 24 88 110 146 192 156 224 253 317 402 384 122 55 354 140 412 150
111 20 115 19 197 -62 119 -117 218 -183 378 -253 104 -45 295 -94 367 -94 52
0 54 1 54 27 0 21 -23 50 -109 133 -60 58 -132 136 -161 173 -69 90 -77 93
-257 123 -45 7 -42 30 5 38 20 3 129 8 242 12 204 6 206 6 600 -45 596 -76
863 -136 1085 -244 113 -55 190 -108 380 -261 274 -220 363 -319 475 -529 49
-93 56 -126 35 -169 -18 -36 -183 -208 -200 -208 -5 0 -38 -37 -72 -83 -104
-138 -153 -268 -153 -403 0 -141 34 -161 114 -69 73 85 134 113 351 161 59 14
96 29 145 62 63 43 66 44 108 33 76 -20 185 -13 324 19 171 41 264 42 376 4
44 -15 87 -24 96 -21 21 8 21 65 1 114 -21 50 -109 166 -158 208 -46 40 -173
107 -302 160 -118 49 -244 111 -272 134 -18 15 -32 56 -62 173 -35 138 -83
284 -158 482 -36 97 -199 421 -269 536 -82 137 -176 266 -309 425 -64 77 -122
147 -128 155 -14 17 -153 134 -247 207 -135 105 -434 276 -640 366 -69 31
-181 70 -250 87 -223 58 -289 102 -354 239 -28 60 -31 74 -31 166 0 99 1 101
53 218 29 65 52 126 50 135 -2 12 -15 18 -43 20 -30 1 -62 -9 -130 -41z"/>
</g>
</svg>
