<?xml version="1.0" standalone="no"?>
<!DOCTYPE svg PUBLIC "-//W3C//DTD SVG 20010904//EN"
 "http://www.w3.org/TR/2001/REC-SVG-20010904/DTD/svg10.dtd">
<svg version="1.0" xmlns="http://www.w3.org/2000/svg"
 width="16.000000pt" height="16.000000pt" viewBox="0 0 16.000000 16.000000"
 preserveAspectRatio="xMidYMid meet">
<metadata>
Created by potrace 1.11, written by Peter Selinger 2001-2013
</metadata>
<g transform="translate(0.000000,16.000000) scale(0.002500,-0.002500)"
fill="#000000" stroke="none">
<path d="M2765 5447 c-82 -33 -196 -101 -194 -114 3 -19 -2 -27 -9 -15 -6 9
-33 -12 -91 -70 -80 -80 -164 -178 -128 -149 9 7 17 9 17 3 0 -13 -25 -33 -32
-26 -3 3 -16 -9 -29 -27 -13 -18 -17 -29 -10 -24 9 5 12 3 9 -6 -3 -8 -9 -14
-15 -14 -6 0 -42 -40 -80 -90 -38 -50 -89 -104 -114 -121 -26 -17 -110 -51
-195 -78 -370 -119 -620 -228 -804 -351 -91 -61 -190 -142 -189 -153 3 -18 -2
-26 -9 -15 -5 9 -33 -12 -87 -67 -44 -44 -74 -80 -67 -80 7 0 10 -5 7 -10 -4
-6 -10 -8 -14 -6 -4 3 -21 -8 -36 -24 -17 -18 -23 -30 -15 -30 7 0 10 -3 6 -7
-4 -5 -13 -8 -19 -8 -6 0 -46 -45 -90 -100 -104 -133 -124 -160 -107 -150 10
6 12 4 7 -9 -4 -10 -7 -21 -7 -24 0 -4 -4 -1 -8 6 -6 8 -28 -29 -66 -108 -45
-93 -58 -132 -61 -177 -3 -50 -3 -53 4 -18 6 28 8 -1 8 -95 0 -91 -3 -120 -7
-90 -7 41 -7 40 -5 -15 4 -80 39 -169 88 -222 39 -43 40 -44 34 -101 -4 -32
-15 -87 -26 -122 -27 -85 -26 -112 4 -148 14 -17 25 -39 25 -49 0 -32 42 -63
85 -63 35 0 46 7 105 68 71 74 157 192 140 192 -6 0 -8 5 -5 10 4 6 10 8 15 5
4 -2 31 29 60 71 29 41 81 103 116 136 35 34 61 65 58 69 -2 4 0 10 6 14 5 3
10 1 10 -5 0 -6 12 -3 28 8 47 34 112 64 287 133 94 38 163 68 155 69 -13 0
-13 1 0 10 8 5 24 9 35 9 l20 0 -20 -10 c-16 -7 -12 -8 14 -4 18 3 44 5 57 5
15 0 24 6 24 15 0 10 10 15 33 14 l32 -1 -30 -8 c-29 -7 -29 -8 -4 -9 18 -1
50 -24 103 -76 72 -71 181 -151 255 -189 18 -10 30 -13 27 -7 -9 14 4 14 24 1
13 -9 13 -10 0 -10 -19 -1 47 -36 125 -67 93 -37 289 -84 220 -53 -13 6 -1 7
35 3 67 -7 76 -13 24 -14 -34 -1 -31 -3 20 -11 56 -9 60 -8 85 16 l26 26 -20
36 c-11 20 -54 66 -97 102 -42 36 -104 100 -137 143 -90 113 -129 145 -194
159 -42 8 -55 15 -50 26 4 11 22 14 77 12 l71 -1 -65 -7 c-65 -7 -65 -7 20 -6
62 1 84 4 82 14 -1 9 25 12 108 12 83 0 109 -3 108 -12 -2 -9 11 -13 40 -13
23 0 42 -3 42 -7 0 -5 17 -7 38 -7 37 1 37 1 7 9 l-30 8 33 1 c22 1 32 -4 32
-14 0 -11 10 -15 38 -14 37 1 37 1 7 9 l-30 8 31 1 c20 1 34 -5 38 -14 3 -10
17 -15 38 -14 l33 1 -30 8 -30 8 31 1 c20 1 34 -5 38 -14 3 -10 17 -15 38 -14
l33 1 -30 8 -30 8 31 1 c20 1 34 -5 38 -14 3 -10 17 -15 38 -14 l33 1 -30 8
-30 8 31 1 c20 1 34 -5 38 -14 3 -10 17 -15 38 -14 l33 1 -30 8 -30 8 31 1
c20 1 34 -5 38 -14 3 -10 17 -15 38 -14 l33 1 -30 8 -30 8 31 1 c20 1 34 -5
38 -14 3 -10 18 -15 43 -14 l38 2 -35 7 -35 7 38 2 c24 1 37 -3 37 -12 0 -12
54 -24 185 -43 25 -4 26 -3 10 5 -19 9 -19 10 3 10 12 1 22 -5 22 -12 0 -8 31
-19 83 -30 45 -9 93 -20 107 -23 20 -4 22 -3 10 5 -13 10 -13 11 0 10 8 0 24
-4 35 -9 l20 -9 -20 -1 c-11 0 30 -18 90 -39 134 -47 188 -70 266 -116 33 -19
57 -30 53 -24 -4 7 -1 10 7 7 8 -3 14 -10 14 -16 0 -6 11 -19 25 -29 14 -9 93
-71 175 -137 205 -165 343 -301 407 -400 133 -207 145 -260 78 -345 -22 -28
-40 -54 -40 -58 0 -4 -6 -8 -13 -8 -7 0 -43 -27 -80 -59 -47 -42 -63 -62 -55
-68 12 -7 4 -12 -14 -9 -9 1 -77 -90 -111 -149 -33 -58 -77 -190 -76 -227 l1
-28 8 30 c6 24 8 20 7 -25 0 -30 -2 -45 -4 -32 -8 39 -23 24 -23 -23 0 -43 12
-60 23 -32 3 6 5 -4 6 -23 0 -28 -2 -31 -9 -15 -7 17 -9 17 -9 3 -1 -10 12
-32 28 -50 25 -27 33 -31 48 -22 10 6 18 17 18 25 1 8 6 13 11 12 13 -2 104
88 103 102 0 5 5 11 12 14 6 2 9 -1 5 -7 -4 -6 15 -2 41 10 26 12 80 29 118
39 51 13 62 18 40 19 l-30 2 30 8 c17 4 41 8 55 8 l25 0 -25 -8 c-40 -13 -2
-11 44 2 22 6 71 31 109 56 62 40 70 43 99 33 38 -13 74 -14 43 -1 -18 8 -17
9 7 9 21 1 26 -3 21 -16 -6 -14 1 -15 68 -9 41 4 90 11 109 15 l35 9 -30 2
c-33 1 144 50 180 49 16 -1 15 -2 -5 -9 -14 -4 22 -5 80 -2 94 4 113 2 183
-22 42 -14 88 -26 101 -26 24 0 54 26 42 37 -3 3 -6 1 -6 -5 0 -7 -3 -12 -8
-12 -4 0 -5 21 -3 48 3 36 6 42 12 27 7 -17 8 -18 8 -2 1 30 -24 79 -79 152
-96 128 -165 176 -405 278 -234 100 -295 135 -295 169 0 64 -100 388 -191 618
-37 91 -78 170 -79 150 0 -13 -1 -13 -10 0 -12 19 -13 33 0 25 22 -13 -116
254 -200 390 -57 91 -79 120 -93 120 -5 0 -12 6 -15 14 -3 9 0 11 9 5 11 -6
12 -5 3 7 -80 107 -107 139 -112 135 -7 -7 -32 13 -32 26 0 6 8 4 18 -3 17
-14 -33 49 -142 176 -61 72 -111 125 -87 93 8 -10 9 -18 3 -18 -12 0 -34 25
-27 32 3 2 -9 17 -25 33 -18 17 -30 23 -30 15 0 -7 -3 -10 -7 -6 -5 4 -8 13
-8 19 0 35 -362 279 -574 386 -23 13 -40 18 -36 12 9 -15 2 -14 -40 6 -20 9
-30 20 -24 23 18 12 -217 108 -344 141 -67 17 -144 40 -170 50 -27 11 -46 15
-42 9 8 -13 -5 -13 -25 0 -11 7 -12 10 -2 10 7 0 -2 15 -21 33 -66 63 -117
185 -117 282 0 38 17 117 35 159 6 14 5 17 -3 12 -14 -9 -15 3 -2 24 9 13 10
13 11 0 0 -8 16 16 35 55 19 38 33 81 33 95 -1 23 -2 23 -9 -5 l-8 -30 -1 27
c0 15 -9 32 -18 37 -14 8 -15 10 -3 11 13 0 13 1 0 10 -22 14 -27 13 -115 -23z"/>
<path d="M2383 3363 c26 -2 67 -2 90 0 23 2 2 3 -48 3 -49 0 -68 -1 -42 -3z"/>
<path d="M325 3320 c-3 -5 -1 -18 4 -27 9 -16 10 -14 11 10 0 28 -5 34 -15 17z"/>
<path d="M5548 1633 c7 -3 16 -2 19 1 4 3 -2 6 -13 5 -11 0 -14 -3 -6 -6z"/>
<path d="M5475 1620 c-25 -11 1 -11 35 0 20 6 21 8 5 8 -11 0 -29 -3 -40 -8z"/>
</g>
</svg>
